<svg width="271" height="72" viewBox="0 0 271 72" fill="none" xmlns="http://www.w3.org/2000/svg">
<path d="M1.32031 69V54.4545H7.59872C8.67827 54.4545 9.62287 54.6676 10.4325 55.0938C11.2422 55.5199 11.8719 56.1188 12.3217 56.8906C12.7715 57.6624 12.9964 58.5644 12.9964 59.5966C12.9964 60.6383 12.7644 61.5402 12.3004 62.3026C11.8411 63.0649 11.1948 63.652 10.3615 64.0639C9.53291 64.4759 8.56463 64.6818 7.45668 64.6818H3.70668V61.6136H6.66122C7.12524 61.6136 7.5206 61.5331 7.8473 61.3722C8.17874 61.2064 8.43206 60.9721 8.60724 60.669C8.78717 60.366 8.87713 60.0085 8.87713 59.5966C8.87713 59.1799 8.78717 58.8248 8.60724 58.5312C8.43206 58.233 8.17874 58.0057 7.8473 57.8494C7.5206 57.6884 7.12524 57.608 6.66122 57.608H5.26918V69H1.32031ZM14.4453 69V54.4545H20.7237C21.8033 54.4545 22.7479 54.651 23.5575 55.044C24.3672 55.437 24.9969 56.0028 25.4467 56.7415C25.8965 57.4801 26.1214 58.3655 26.1214 59.3977C26.1214 60.4394 25.8894 61.3177 25.4254 62.0327C24.9661 62.7476 24.3198 63.2874 23.4865 63.652C22.6579 64.0166 21.6896 64.1989 20.5817 64.1989H16.8317V61.1307H19.7862C20.2502 61.1307 20.6456 61.0739 20.9723 60.9602C21.3037 60.8419 21.5571 60.6548 21.7322 60.3991C21.9122 60.1435 22.0021 59.8097 22.0021 59.3977C22.0021 58.9811 21.9122 58.6425 21.7322 58.3821C21.5571 58.117 21.3037 57.9228 20.9723 57.7997C20.6456 57.6719 20.2502 57.608 19.7862 57.608H18.3942V69H14.4453ZM22.968 62.3239L26.6044 69H22.3146L18.7635 62.3239H22.968ZM31.5831 69H27.3217L32.1229 54.4545H37.5206L42.3217 69H38.0604L34.8786 58.4602H34.7649L31.5831 69ZM30.7876 63.2614H38.799V66.2159H30.7876V63.2614ZM56.6186 59.9091H52.6129C52.5845 59.5777 52.5088 59.277 52.3857 59.0071C52.2673 58.7372 52.1016 58.5052 51.8885 58.3111C51.6802 58.1122 51.4268 57.9607 51.1286 57.8565C50.8303 57.7476 50.4917 57.6932 50.1129 57.6932C49.45 57.6932 48.889 57.8542 48.4297 58.1761C47.9751 58.4981 47.6295 58.9598 47.3928 59.5611C47.1607 60.1624 47.0447 60.8845 47.0447 61.7273C47.0447 62.6174 47.1631 63.3632 47.3999 63.9645C47.6413 64.5611 47.9893 65.0109 48.4439 65.3139C48.8984 65.6122 49.4453 65.7614 50.0845 65.7614C50.4491 65.7614 50.7758 65.7164 51.0646 65.6264C51.3535 65.5317 51.6044 65.3968 51.8175 65.2216C52.0305 65.0464 52.2034 64.8357 52.3359 64.5895C52.4732 64.3385 52.5656 64.0568 52.6129 63.7443L56.6186 63.7727C56.5713 64.3883 56.3984 65.0156 56.1001 65.6548C55.8018 66.2893 55.3781 66.8764 54.8288 67.4162C54.2843 67.9512 53.6096 68.3821 52.8047 68.7088C51.9998 69.0355 51.0646 69.1989 49.9993 69.1989C48.6641 69.1989 47.4661 68.9124 46.4055 68.3395C45.3497 67.7666 44.514 66.9238 43.8984 65.8111C43.2876 64.6984 42.9822 63.3371 42.9822 61.7273C42.9822 60.108 43.2947 58.7443 43.9197 57.6364C44.5447 56.5237 45.3875 55.6832 46.4482 55.1151C47.5088 54.5421 48.6925 54.2557 49.9993 54.2557C50.9179 54.2557 51.763 54.3812 52.5348 54.6321C53.3066 54.883 53.9837 55.25 54.5661 55.733C55.1484 56.2112 55.6172 56.8007 55.9723 57.5014C56.3274 58.2022 56.5429 59.0047 56.6186 59.9091ZM58.0124 57.6364V54.4545H70.6545V57.6364H66.2795V69H62.3874V57.6364H58.0124ZM76.0895 54.4545V69H72.1406V54.4545H76.0895ZM91.5405 59.9091H87.5348C87.5064 59.5777 87.4306 59.277 87.3075 59.0071C87.1892 58.7372 87.0234 58.5052 86.8104 58.3111C86.602 58.1122 86.3487 57.9607 86.0504 57.8565C85.7521 57.7476 85.4136 57.6932 85.0348 57.6932C84.3719 57.6932 83.8108 57.8542 83.3516 58.1761C82.897 58.4981 82.5514 58.9598 82.3146 59.5611C82.0826 60.1624 81.9666 60.8845 81.9666 61.7273C81.9666 62.6174 82.085 63.3632 82.3217 63.9645C82.5632 64.5611 82.9112 65.0109 83.3658 65.3139C83.8203 65.6122 84.3672 65.7614 85.0064 65.7614C85.371 65.7614 85.6977 65.7164 85.9865 65.6264C86.2753 65.5317 86.5263 65.3968 86.7393 65.2216C86.9524 65.0464 87.1252 64.8357 87.2578 64.5895C87.3951 64.3385 87.4875 64.0568 87.5348 63.7443L91.5405 63.7727C91.4931 64.3883 91.3203 65.0156 91.022 65.6548C90.7237 66.2893 90.3 66.8764 89.7507 67.4162C89.2062 67.9512 88.5315 68.3821 87.7266 68.7088C86.9216 69.0355 85.9865 69.1989 84.9212 69.1989C83.5859 69.1989 82.388 68.9124 81.3274 68.3395C80.2715 67.7666 79.4358 66.9238 78.8203 65.8111C78.2095 64.6984 77.9041 63.3371 77.9041 61.7273C77.9041 60.108 78.2166 58.7443 78.8416 57.6364C79.4666 56.5237 80.3094 55.6832 81.37 55.1151C82.4306 54.5421 83.6143 54.2557 84.9212 54.2557C85.8397 54.2557 86.6849 54.3812 87.4567 54.6321C88.2285 54.883 88.9055 55.25 89.4879 55.733C90.0703 56.2112 90.5391 56.8007 90.8942 57.5014C91.2493 58.2022 91.4647 59.0047 91.5405 59.9091ZM101.94 54.4545H105.889V63.7727C105.889 64.8807 105.624 65.8395 105.093 66.6491C104.568 67.4541 103.834 68.0767 102.892 68.517C101.949 68.9527 100.856 69.1705 99.6104 69.1705C98.3557 69.1705 97.2572 68.9527 96.315 68.517C95.3728 68.0767 94.6388 67.4541 94.1133 66.6491C93.5924 65.8395 93.332 64.8807 93.332 63.7727V54.4545H97.2809V63.4318C97.2809 63.8816 97.3803 64.2841 97.5792 64.6392C97.7781 64.9896 98.0527 65.2642 98.4031 65.4631C98.7582 65.6619 99.1606 65.7614 99.6104 65.7614C100.065 65.7614 100.467 65.6619 100.818 65.4631C101.168 65.2642 101.443 64.9896 101.642 64.6392C101.841 64.2841 101.94 63.8816 101.94 63.4318V54.4545ZM107.766 54.4545H112.68L116.061 62.6932H116.232L119.612 54.4545H124.527V69H120.663V60.5909H120.55L117.311 68.8864H114.982L111.743 60.5341H111.629V69H107.766V54.4545ZM134.161 69H129.9L134.701 54.4545H140.099L144.9 69H140.638L137.457 58.4602H137.343L134.161 69ZM133.366 63.2614H141.377V66.2159H133.366V63.2614ZM146.301 69V54.4545H152.579C153.659 54.4545 154.603 54.651 155.413 55.044C156.223 55.437 156.852 56.0028 157.302 56.7415C157.752 57.4801 157.977 58.3655 157.977 59.3977C157.977 60.4394 157.745 61.3177 157.281 62.0327C156.822 62.7476 156.175 63.2874 155.342 63.652C154.513 64.0166 153.545 64.1989 152.437 64.1989H148.687V61.1307H151.642C152.106 61.1307 152.501 61.0739 152.828 60.9602C153.159 60.8419 153.413 60.6548 153.588 60.3991C153.768 60.1435 153.858 59.8097 153.858 59.3977C153.858 58.9811 153.768 58.6425 153.588 58.3821C153.413 58.117 153.159 57.9228 152.828 57.7997C152.501 57.6719 152.106 57.608 151.642 57.608H150.25V69H146.301ZM154.824 62.3239L158.46 69H154.17L150.619 62.3239H154.824ZM159.262 57.6364V54.4545H171.904V57.6364H167.529V69H163.637V57.6364H159.262ZM186.821 59.2557C186.759 59.0047 186.662 58.7846 186.53 58.5952C186.397 58.401 186.232 58.2377 186.033 58.1051C185.839 57.9678 185.611 57.866 185.351 57.7997C185.095 57.7287 184.813 57.6932 184.506 57.6932C183.843 57.6932 183.277 57.8518 182.808 58.169C182.344 58.4863 181.989 58.9432 181.743 59.5398C181.501 60.1364 181.381 60.8561 181.381 61.6989C181.381 62.5511 181.497 63.2803 181.729 63.8864C181.961 64.4924 182.306 64.9564 182.766 65.2784C183.225 65.6004 183.795 65.7614 184.477 65.7614C185.079 65.7614 185.578 65.6738 185.976 65.4986C186.378 65.3234 186.679 65.0748 186.878 64.7528C187.077 64.4309 187.176 64.0521 187.176 63.6165L187.858 63.6875H184.534V60.875H190.983V62.892C190.983 64.2178 190.701 65.3518 190.138 66.294C189.579 67.2315 188.807 67.9512 187.822 68.4531C186.842 68.9503 185.718 69.1989 184.449 69.1989C183.033 69.1989 181.79 68.8982 180.72 68.2969C179.65 67.6955 178.814 66.8385 178.213 65.7259C177.616 64.6132 177.318 63.2898 177.318 61.7557C177.318 60.553 177.5 59.4877 177.865 58.5597C178.234 57.6316 178.746 56.848 179.399 56.2088C180.053 55.5649 180.808 55.0795 181.665 54.7528C182.522 54.4214 183.44 54.2557 184.42 54.2557C185.282 54.2557 186.082 54.3788 186.821 54.625C187.564 54.8665 188.22 55.2121 188.788 55.6619C189.361 56.107 189.823 56.6349 190.173 57.2457C190.524 57.8565 190.737 58.5265 190.812 59.2557H186.821ZM196.153 69H191.892L196.693 54.4545H202.091L206.892 69H202.631L199.449 58.4602H199.335L196.153 69ZM195.358 63.2614H203.369V66.2159H195.358V63.2614ZM208.293 69V54.4545H212.242V65.8182H218.123V69H208.293ZM219.719 69V54.4545H223.668V65.8182H229.548V69H219.719ZM231.145 69V54.4545H241.627V57.6364H235.093V60.1364H241.088V63.3182H235.093V65.8182H241.599V69H231.145ZM243.586 69V54.4545H249.864C250.944 54.4545 251.888 54.651 252.698 55.044C253.508 55.437 254.138 56.0028 254.587 56.7415C255.037 57.4801 255.262 58.3655 255.262 59.3977C255.262 60.4394 255.03 61.3177 254.566 62.0327C254.107 62.7476 253.46 63.2874 252.627 63.652C251.799 64.0166 250.83 64.1989 249.722 64.1989H245.972V61.1307H248.927C249.391 61.1307 249.786 61.0739 250.113 60.9602C250.444 60.8419 250.698 60.6548 250.873 60.3991C251.053 60.1435 251.143 59.8097 251.143 59.3977C251.143 58.9811 251.053 58.6425 250.873 58.3821C250.698 58.117 250.444 57.9228 250.113 57.7997C249.786 57.6719 249.391 57.608 248.927 57.608H247.535V69H243.586ZM252.109 62.3239L255.745 69H251.455L247.904 62.3239H252.109ZM255.665 54.4545H260.069L262.909 60.3636H263.023L265.864 54.4545H270.267L264.926 64.4261V69H261.006V64.4261L255.665 54.4545Z" fill="white"/>
<rect x="119" width="32" height="32" rx="2" fill="#0278FE"/>
<rect x="119" y="6" width="32" height="2" fill="#2A2C2F"/>
<rect x="130" y="6" width="2" height="26" fill="#2A2C2F"/>
</svg>
